<?xml version="1.0" encoding="utf-8"?>
<!-- Generator: Adobe Illustrator 25.0.1, SVG Export Plug-In . SVG Version: 6.00 Build 0)  -->
<svg version="1.1" id="Layer_1" xmlns="http://www.w3.org/2000/svg" xmlns:xlink="http://www.w3.org/1999/xlink" x="0px" y="0px"
	 viewBox="0 0 205.17 175.37" style="enable-background:new 0 0 205.17 175.37;" xml:space="preserve">
<style type="text/css">
	.st0{fill:none;}
	.st1{fill:#81CADF;}
	.st2{fill:#60BDD8;}
	.st3{fill:#94D1E3;}
	.st4{fill:#00A9CE;}
</style>
<polygon class="st0" points="95.47,40.5 95.47,40.5 95.46,40.5 "/>
<path class="st1" d="M119.4,0.6c-0.06,0.03-0.12,0.06-0.17,0.09c-0.23,0.11-0.46,0.22-0.69,0.35L96.26,13.9l25.94,15.05V0
	C121.25,0.02,120.3,0.22,119.4,0.6z"/>
<path class="st2" d="M73.7,90.98l23.59-13.63L71.31,62.39l0.02,29.27C72.18,91.67,72.97,91.42,73.7,90.98z"/>
<path class="st3" d="M148.73,75.61L95.52,44.89l-0.01,0l-2.5-1.44L45.06,15.78c-0.34,0.85-0.53,1.76-0.54,2.7c0,0.21,0,0.42,0,0.62
	v54.98c0,1.74,0.95,3.35,2.48,4.19l21.9,12.79c0.75,0.41,1.59,0.61,2.43,0.6L71.3,63.49l0.01-1.11l49.68,28.61
	c0.15,0.08,0.3,0.15,0.45,0.21c0.05,0.02,0.09,0.05,0.14,0.06c1.43,0.56,2.62,0.12,3.94-0.72l8.31-4.73l13.26-7.91
	C147.85,77.33,148.42,76.52,148.73,75.61z"/>
<path class="st4" d="M148.99,39.36V18.51c0-2.67-1.46-5.13-3.8-6.41L125.94,0.92c-1.16-0.64-2.45-0.94-3.74-0.92v28.95L78.77,3.75
	l-4.83-2.72c-2.1-1.18-3.98-1.27-6.13-0.28c-0.05,0.03-0.11,0.06-0.16,0.09c-0.25,0.12-0.5,0.25-0.73,0.4l-7.63,4.44l-10.97,6.37
	c0.01,0.03,0,0,0,0c-1.5,0.83-2.63,2.19-3.25,3.73c0.06,0.03,47.95,27.67,47.95,27.67l2.5,1.44l0.01,0l53.21,30.72
	c0.26-0.99,0.26-2.8,0.26-2.8V39.36z"/>
<g>
	<path d="M40.93,175.08h-2.39l-1.25-8.36h-0.04l-2.46,6.44h-1.72l-2.46-6.44h-0.04l-1.27,8.36h-2.39l2.32-12.95h1.74l2.92,7.32h0.04
		l2.94-7.32l1.74,0L40.93,175.08z"/>
	<path d="M30.2,152.9l-5.95,0L7.26,128.91H7.21l0,23.99l-6.4,0l0-34.99l5.95,0l16.99,24.04h0.05l0-24.04l6.4,0L30.2,152.9z"/>
	<path d="M73.25,135.41c0,10.85-7.95,18.24-18.34,18.24s-18.29-7.4-18.29-18.24c0-10.85,7.9-18.24,18.29-18.24
		S73.25,124.56,73.25,135.41z M43.61,135.41c0,6.95,4.75,11.7,11.3,11.7c6.6,0,11.3-4.75,11.3-11.7c0-6.95-4.7-11.7-11.3-11.7
		C48.36,123.71,43.61,128.46,43.61,135.41z"/>
	<path d="M88.97,138.95h-2.4l0,13.94l-6.4,0l0-34.99l12.89,0c6.95,0,11.3,4.3,11.3,10.6c0,5.2-3.05,9.1-8.2,10.15l10.35,14.24
		l-8.05,0L88.97,138.95z M86.57,133.31l5.5,0c3.7,0,5.45-1.75,5.45-4.7c0-2.85-1.75-4.8-5.45-4.8l-5.5,0L86.57,133.31z"/>
	<path d="M141.4,135.41c0,10.9-7.65,17.49-18.19,17.49l-11.19,0l0-34.99l11.19,0C133.75,117.91,141.4,124.51,141.4,135.41z
		 M118.41,123.81l0,23.19h5.1c6.3,0,11-4.05,11-11.59c0-7.55-4.7-11.59-11-11.59L118.41,123.81z"/>
	<path d="M154.63,152.9h-6.45l0-34.99l6.45,0L154.63,152.9z"/>
	<path d="M161.54,135.41c0-11.05,7.85-18.24,18.89-18.24c5.4,0,9.35,1.65,12.49,3.85l-3.7,5.6c-2.15-1.5-5.1-2.9-8.85-2.9
		c-6.8,0-11.85,4.55-11.85,11.7c0,7.15,5.05,11.7,11.85,11.7c3.75,0,6.7-1.4,8.85-2.9l3.7,5.6c-3.15,2.2-7.1,3.85-12.49,3.85
		C169.38,153.65,161.54,146.45,161.54,135.41z"/>
	<path d="M0,174.11l1.05-2.16c1.04,0.61,2.26,1.13,3.5,1.13c1.22,0,1.83-0.54,1.83-1.31c0-0.67-0.48-1.11-1.31-1.7l-2.09-1.5
		c-1.37-0.94-2.05-2.02-2.05-3.4c0-2.02,1.37-3.29,3.85-3.29c1.29,0,2.59,0.35,3.79,0.91l-1.02,2.16c-0.98-0.5-1.91-0.8-2.76-0.8
		c-0.98,0-1.35,0.37-1.35,0.94c0,0.5,0.3,0.83,1,1.33l2.24,1.57c1.44,0.98,2.22,2.02,2.22,3.64c0,2.44-1.7,3.74-4.42,3.74
		C2.79,175.37,1.22,174.87,0,174.11"/>
	<path d="M21.85,172.87l0,2.22l-7.77,0l0-12.95l7.68,0l0,2.22h-5.31l0,2.59h4.85l0,2.18l-4.85,0l0,3.74L21.85,172.87z"/>
	<path d="M48.61,175.09l-2.39,0l0-12.95h2.39L48.61,175.09z"/>
	<path d="M48.6,175.09l-2.46,0l0-12.95h2.46L48.6,175.09z"/>
	<path d="M53.39,168.61c0-4.09,2.9-6.75,6.99-6.75c2,0,3.46,0.61,4.62,1.42l-1.37,2.07c-0.8-0.55-1.89-1.07-3.27-1.07
		c-2.52,0-4.38,1.68-4.38,4.33s1.87,4.33,4.38,4.33c1.39,0,2.48-0.52,3.27-1.07l1.37,2.07c-1.16,0.81-2.63,1.42-4.62,1.42
		C56.29,175.37,53.39,172.7,53.39,168.61z"/>
	<path d="M82.54,168.61c0,4.01-2.94,6.75-6.79,6.75c-3.85,0-6.77-2.74-6.77-6.75c0-4.01,2.92-6.75,6.77-6.75
		C79.6,161.86,82.54,164.6,82.54,168.61z M71.58,168.61c0,2.57,1.76,4.33,4.18,4.33c2.44,0,4.18-1.76,4.18-4.33
		c0-2.57-1.74-4.33-4.18-4.33C73.33,164.29,71.58,166.04,71.58,168.61z"/>
	<path d="M98.38,175.09h-2.2l-6.29-8.88h-0.02l0,8.88h-2.37l0-12.95h2.2l6.29,8.9h0.02l0-8.9l2.37,0L98.38,175.09z"/>
	<path d="M115.12,168.57c0,4.03-2.83,6.47-6.73,6.47h-4.14l0-12.95l4.14,0C112.29,162.1,115.12,164.54,115.12,168.57z
		 M106.61,164.28l0,8.58h1.89c2.33,0,4.07-1.5,4.07-4.29c0-2.79-1.74-4.29-4.07-4.29H106.61z"/>
	<path d="M130.72,169.94c0,3.27-1.94,5.36-5.33,5.36c-3.4,0-5.35-2.09-5.35-5.36l0-7.84h2.5l0,7.7c0,1.87,1.11,3.07,2.85,3.07
		c1.72,0,2.83-1.2,2.83-3.07v-7.7h2.5L130.72,169.94z"/>
	<path d="M135.64,168.57c0-4.09,2.9-6.75,6.99-6.75c2,0,3.46,0.61,4.62,1.42l-1.37,2.07c-0.8-0.55-1.89-1.07-3.27-1.07
		c-2.52,0-4.38,1.68-4.38,4.33c0,2.65,1.87,4.33,4.38,4.33c1.39,0,2.48-0.52,3.27-1.07l1.37,2.07c-1.16,0.81-2.63,1.42-4.62,1.42
		C138.54,175.33,135.64,172.66,135.64,168.57z"/>
	<path d="M160.55,164.32h-3.53l0,10.73h-2.37l0-10.73l-3.53,0v-2.22l9.43,0V164.32z"/>
	<path d="M177.75,168.57c0,4.01-2.94,6.75-6.79,6.75c-3.85,0-6.77-2.74-6.77-6.75s2.92-6.75,6.77-6.75
		C174.81,161.82,177.75,164.56,177.75,168.57z M166.78,168.57c0,2.57,1.76,4.33,4.18,4.33c2.44,0,4.18-1.76,4.18-4.33
		c0-2.57-1.74-4.33-4.18-4.33C168.54,164.25,166.78,166,166.78,168.57z"/>
	<path d="M185.85,169.89h-0.89v5.16h-2.37l0-12.95h4.77c2.57,0,4.18,1.59,4.18,3.92c0,1.92-1.13,3.37-3.03,3.75l3.83,5.27h-2.98
		L185.85,169.89z M184.96,167.8H187c1.37,0,2.02-0.65,2.02-1.74c0-1.05-0.65-1.78-2.02-1.78h-2.04L184.96,167.8z"/>
	<g>
		<g>
			<g>
				<g>
					<path d="M200.1,122.23v1.84h-0.35v-4.04h1.78c0.77,0,1.34,0.34,1.34,1.07c0,0.47-0.21,0.83-0.76,0.96
						c0.32,0.08,0.65,0.31,0.65,1v0.16c0,0.33,0,0.68,0.04,0.84h-0.36c-0.06-0.18-0.04-0.52-0.04-0.81v-0.14
						c0-0.7-0.27-0.89-1.05-0.89L200.1,122.23z M200.1,121.91h1.33c0.71,0,1.07-0.25,1.07-0.8c0-0.5-0.36-0.75-1.05-0.75l-1.36,0
						V121.91z"/>
					<path d="M202.95,124.18h-0.59l-0.02-0.08c-0.05-0.16-0.05-0.42-0.05-0.68l0-0.3c0-0.62-0.2-0.78-0.94-0.78h-1.15l0,1.84h-0.57
						v-4.25l1.89,0c0.91,0,1.45,0.44,1.45,1.18c0,0.46-0.19,0.79-0.56,0.97c0.3,0.18,0.45,0.51,0.45,0.99v0.16
						c0,0.31,0,0.67,0.04,0.81L202.95,124.18z M202.53,123.96h0.14c-0.02-0.19-0.02-0.47-0.02-0.73v-0.16
						c0-0.68-0.32-0.83-0.57-0.89l-0.43-0.11l0.43-0.1c0.45-0.11,0.67-0.39,0.67-0.86c0-0.87-0.86-0.96-1.23-0.96h-1.67v3.82h0.13
						v-1.84l1.37,0c0.73,0,1.16,0.16,1.16,1l0,0.3C202.51,123.62,202.51,123.82,202.53,123.96z M201.43,122.02l-1.44,0v-1.77h1.47
						c0.96,0,1.16,0.46,1.16,0.85C202.61,121.71,202.21,122.02,201.43,122.02z M200.21,121.8h1.22c0.86,0,0.97-0.37,0.97-0.69
						c0-0.16,0-0.64-0.94-0.64h-1.25V121.8z"/>
				</g>
			</g>
			<g>
				<g>
					<path d="M201.24,125.81c-2.11,0-3.83-1.72-3.83-3.83c0-2.11,1.72-3.83,3.83-3.83c2.11,0,3.83,1.72,3.83,3.83
						C205.06,124.09,203.35,125.81,201.24,125.81z M201.24,118.51c-1.91,0-3.47,1.56-3.47,3.47c0,1.91,1.56,3.47,3.47,3.47
						c1.91,0,3.47-1.56,3.47-3.47C204.71,120.07,203.15,118.51,201.24,118.51z"/>
					<path d="M201.24,125.92c-2.17,0-3.94-1.77-3.94-3.94c0-2.17,1.77-3.94,3.94-3.94c2.17,0,3.94,1.77,3.94,3.94
						C205.17,124.15,203.41,125.92,201.24,125.92z M201.24,118.27c-2.05,0-3.72,1.67-3.72,3.72c0,2.05,1.67,3.72,3.72,3.72
						c2.05,0,3.72-1.67,3.72-3.72C204.95,119.93,203.29,118.27,201.24,118.27z M201.24,125.57c-1.97,0-3.58-1.61-3.58-3.58
						c0-1.97,1.61-3.58,3.58-3.58s3.58,1.61,3.58,3.58C204.82,123.96,203.21,125.57,201.24,125.57z M201.24,118.62
						c-1.85,0-3.36,1.51-3.36,3.36c0,1.85,1.51,3.36,3.36,3.36s3.36-1.51,3.36-3.36C204.6,120.13,203.09,118.62,201.24,118.62z"/>
				</g>
			</g>
		</g>
	</g>
</g>
</svg>
